<svg xmlns="http://www.w3.org/2000/svg" xmlns:xlink="http://www.w3.org/1999/xlink" width="302" height="171.937" viewBox="0 0 302 171.937"><defs><linearGradient id="a" x1="0.579" y1="-0.53" x2="0.579" y2="0.47" gradientUnits="objectBoundingBox"><stop offset="0" stop-color="gray" stop-opacity="0.251"/><stop offset="0.54" stop-color="gray" stop-opacity="0.122"/><stop offset="1" stop-color="gray" stop-opacity="0.102"/></linearGradient></defs><path d="M302,138.939a47.664,47.664,0,0,1-6.9,24.783c0,9.139-4.261,17.423-11.172,23.46a38.192,38.192,0,0,1-5.565,4.042c-.079.05-.161.1-.243.145l-.446.264-.14.082h0a43.454,43.454,0,0,1-21.4,5.5H57.33a53.9,53.9,0,0,1-35.11-12.487c-8.991-7.714-14.532-18.389-14.532-30.163A47.649,47.649,0,0,1,0,128.514c0-26.172,20.918-47.388,46.725-47.388.913,0,1.819.032,2.719.082C65.637,53.6,102.162,34.34,144.6,34.34c26.087,0,49.933,7.273,68.2,19.289a45.983,45.983,0,0,1,22.682-5.953c25.8,0,46.725,21.217,46.725,47.388a48.823,48.823,0,0,1-.264,4.958A47.518,47.518,0,0,1,302,138.939Z" transform="translate(0 -25.275)" fill="#88b3c6" opacity="0.1" style="isolation:isolate"/><ellipse cx="103.482" cy="2.772" rx="103.482" ry="2.772" transform="translate(5.544 123.086)" fill="#6c63ff" opacity="0.1" style="isolation:isolate"/><g transform="translate(37.486 48.642)" opacity="0.7"><rect width="32.998" height="18.215" transform="translate(0 56.757)" fill="#65617d"/><rect width="10.031" height="2.112" transform="translate(11.615 59.925)" opacity="0.1" style="isolation:isolate"/><rect width="7.524" height="1.584" transform="translate(12.869 60.189)" opacity="0.1" style="isolation:isolate"/><rect width="32.998" height="18.215" transform="translate(33.526 56.757)" fill="#65617d"/><rect width="10.031" height="2.112" transform="translate(45.142 59.925)" opacity="0.1" style="isolation:isolate"/><rect width="7.524" height="1.584" transform="translate(46.396 60.189)" opacity="0.1" style="isolation:isolate"/><rect width="32.998" height="18.215" transform="translate(0 38.014)" fill="#65617d"/><rect width="10.031" height="2.112" transform="translate(11.615 41.182)" opacity="0.1" style="isolation:isolate"/><rect width="7.524" height="1.584" transform="translate(12.869 41.446)" opacity="0.1" style="isolation:isolate"/><rect width="32.998" height="18.215" transform="translate(33.526 38.014)" fill="#65617d"/><rect width="10.031" height="2.112" transform="translate(45.142 41.182)" opacity="0.1" style="isolation:isolate"/><rect width="7.524" height="1.584" transform="translate(46.396 41.446)" opacity="0.1" style="isolation:isolate"/><rect width="32.998" height="18.215" transform="translate(0 19.007)" fill="#65617d"/><rect width="10.031" height="2.112" transform="translate(11.615 22.175)" opacity="0.1" style="isolation:isolate"/><rect width="7.524" height="1.584" transform="translate(12.869 22.439)" opacity="0.1" style="isolation:isolate"/><rect width="32.998" height="18.215" transform="translate(33.526 19.007)" fill="#65617d"/><rect width="10.031" height="2.112" transform="translate(45.142 22.175)" opacity="0.1" style="isolation:isolate"/><rect width="7.524" height="1.584" transform="translate(46.396 22.439)" opacity="0.1" style="isolation:isolate"/><rect width="32.998" height="18.215" transform="translate(33.526)" fill="#65617d"/><rect width="10.031" height="2.112" transform="translate(45.142 3.168)" opacity="0.1" style="isolation:isolate"/><rect width="7.524" height="1.584" transform="translate(46.396 3.432)" opacity="0.1" style="isolation:isolate"/></g><g transform="translate(104.538 48.378)" opacity="0.7"><rect width="32.998" height="18.215" transform="translate(0 56.757)" fill="#65617d"/><rect width="10.031" height="2.112" transform="translate(11.615 59.925)" opacity="0.1" style="isolation:isolate"/><rect width="7.524" height="1.584" transform="translate(12.869 60.189)" opacity="0.1" style="isolation:isolate"/><rect width="32.998" height="18.215" transform="translate(33.526 56.757)" fill="#65617d"/><rect width="10.031" height="2.112" transform="translate(45.142 59.925)" opacity="0.1" style="isolation:isolate"/><rect width="7.524" height="1.584" transform="translate(46.396 60.189)" opacity="0.1" style="isolation:isolate"/><rect width="32.998" height="18.215" transform="translate(0 38.014)" fill="#65617d"/><rect width="10.031" height="2.112" transform="translate(11.615 41.182)" opacity="0.1" style="isolation:isolate"/><rect width="7.524" height="1.584" transform="translate(12.869 41.446)" opacity="0.1" style="isolation:isolate"/><rect width="32.998" height="18.215" transform="translate(33.526 38.014)" fill="#65617d"/><rect width="10.031" height="2.112" transform="translate(45.142 41.182)" opacity="0.1" style="isolation:isolate"/><rect width="7.524" height="1.584" transform="translate(46.396 41.446)" opacity="0.1" style="isolation:isolate"/><rect width="32.998" height="18.215" transform="translate(0 19.007)" fill="#65617d"/><rect width="10.031" height="2.112" transform="translate(11.615 22.175)" opacity="0.1" style="isolation:isolate"/><rect width="7.524" height="1.584" transform="translate(12.869 22.439)" opacity="0.1" style="isolation:isolate"/><rect width="32.998" height="18.215" transform="translate(33.526 19.007)" fill="#65617d"/><rect width="10.031" height="2.112" transform="translate(45.142 22.175)" opacity="0.1" style="isolation:isolate"/><rect width="7.524" height="1.584" transform="translate(46.396 22.439)" opacity="0.1" style="isolation:isolate"/><rect width="32.998" height="18.215" transform="translate(33.526)" fill="#65617d"/><rect width="10.031" height="2.112" transform="translate(45.142 3.168)" opacity="0.1" style="isolation:isolate"/><rect width="7.524" height="1.584" transform="translate(46.396 3.432)" opacity="0.1" style="isolation:isolate"/></g><path d="M823.016.029S800.791-1.312,803.4,14.263a3.785,3.785,0,0,0,1.975,4s.04-1.154,2.281-.76a10.424,10.424,0,0,0,2.416.116,5.032,5.032,0,0,0,2.951-1.22h0s6.249-2.582,8.677-12.793c0,0,1.8-2.228,1.726-2.8l-3.751,1.6s1.283,2.706.264,4.955c0,0-.121-4.857-.842-4.752-.145.024-1.948.937-1.948.937s2.2,4.712.541,8.139c0,0,.631-5.808-1.23-7.8l-2.64,1.542s2.577,4.868.829,8.841c0,0,.449-6.093-1.386-8.466l-2.392,1.866s2.421,4.8.945,8.094c0,0-.193-7.093-1.462-7.629a14.707,14.707,0,0,0-2.413,2.6s1.658,3.485.628,5.322c0,0-.631-4.725-1.148-4.752,0,0-2.086,3.131-2.3,5.28a11.381,11.381,0,0,1,1.8-5.578,6.275,6.275,0,0,0-3.194,1.655s.325-2.215,3.709-2.408a14.623,14.623,0,0,1,2.183-2.521,13.737,13.737,0,0,0-5.4.623s1.8-2.088,6.022-1.138L812.6,5.3s-4.43-.6-6.309.063c0,0,2.162-1.848,6.945-.5l2.576-1.526a23.589,23.589,0,0,0-6.027-.528s2.376-1.28,6.782.108l1.848-.826s-2.767-.544-3.577-.631-.853-.309-.853-.309a9.6,9.6,0,0,1,5.2.578S823.084.275,823.016.029Z" transform="translate(-591.16 0)" fill="#ec5e04" opacity="0.1" style="isolation:isolate"/><path d="M749.49,15.083s-10.031-.607-8.857,6.433a1.718,1.718,0,0,0,.89,1.808s.018-.528,1.032-.346a4.611,4.611,0,0,0,1.09.053,2.263,2.263,0,0,0,1.333-.552h0S747.8,21.316,748.9,16.7c0,0,.81-1.008.779-1.267l-1.695.723a3.039,3.039,0,0,1,.124,2.241s-.055-2.2-.38-2.144c-.066,0-.882.422-.882.422s1,2.13.245,3.68c0,0,.285-2.624-.557-3.524l-1.193.7s1.167,2.2.375,3.994c0,0,.2-2.753-.626-3.825l-1.08.842s1.093,2.17.428,3.659c0,0-.087-3.207-.663-3.448a6.619,6.619,0,0,0-1.09,1.177s.75,1.584.285,2.4c0,0-.285-2.136-.528-2.144a7.161,7.161,0,0,0-1.04,2.376,5.159,5.159,0,0,1,.813-2.521,2.841,2.841,0,0,0-1.444.747s.148-1,1.676-1.088a7.218,7.218,0,0,1,.987-1.138,6.19,6.19,0,0,0-2.442.282,2.739,2.739,0,0,1,2.722-.515l1.056-.871a9.11,9.11,0,0,0-2.851.029s.977-.834,3.139-.227l1.161-.694a10.439,10.439,0,0,0-2.724-.235,4.168,4.168,0,0,1,3.065.048l.832-.372s-1.251-.248-1.618-.285-.385-.14-.385-.14a4.328,4.328,0,0,1,2.349.264A10.668,10.668,0,0,0,749.49,15.083Z" transform="translate(-545.046 -11.092)" fill="#ec5e04" opacity="0.1" style="isolation:isolate"/><ellipse cx="10.615" cy="1.795" rx="10.615" ry="1.795" transform="translate(48.568 166.617)" fill="#ec5e04"/><path d="M213.451,613.2a3.072,3.072,0,0,0,1.011-1.528,1.363,1.363,0,0,0-.707-1.555c-.649-.248-1.344.2-1.869.657a2.5,2.5,0,0,1-1.816.876,2.772,2.772,0,0,0,.855-2.59,1.089,1.089,0,0,0-.238-.528c-.362-.385-1.014-.222-1.447.082-1.373.966-1.755,2.833-1.763,4.509a8.473,8.473,0,0,1-.024-1.848,1.9,1.9,0,0,0-.7-1.645,2.091,2.091,0,0,0-1.056-.248,2.192,2.192,0,0,0-1.724.491,1.7,1.7,0,0,0,.066,2.112,6.72,6.72,0,0,0,1.787,1.431,3.959,3.959,0,0,1,1.275,1.217,1.088,1.088,0,0,1,.1.219h3.87A10.764,10.764,0,0,0,213.451,613.2Z" transform="translate(-149.878 -447.722)" fill="#ec5e04"/><path d="M690.967,339.1a1.2,1.2,0,0,0-.657-.945,1.228,1.228,0,0,0-1.611.648l-.016.038-5.863,12.336-1.32,48.573h2.112l.792-48.465,6.452-11.42A1.254,1.254,0,0,0,690.967,339.1Z" transform="translate(-501.594 -248.814)" fill="#3f3d56"/><path d="M518.721,596.355a38.183,38.183,0,0,1-5.565,4.042.947.947,0,0,1-.1.121,1.718,1.718,0,0,1-.726.364h0a43.455,43.455,0,0,1-21.4,5.5H345.779C329.148,604.668,319,602.4,319,599.911c0-1.93,6.093-3.728,16.584-5.232q1.631-.237,3.4-.459,1.09-.137,2.231-.264l1.291-.15q1.436-.164,2.949-.32h.082l1.056-.106q1.338-.139,2.732-.264l.676-.061,1.724-.153q1.679-.15,3.432-.288,1.454-.114,2.957-.227c10.153-.752,21.858-1.32,34.6-1.687l3.638-.124,1.225-.026,2.587-.058,1.037-.021,1.09-.021.776-.013,3.643-.058,1.872-.026h.383q6.639-.079,13.527-.082c9.076,0,17.877.108,26.264.314h0q7.223.174,14,.444h.042c13.036.512,24.7,1.267,34.36,2.2l.177.018c2.479.24,4.826.5,7.027.76,2.072.248,4.018.51,5.823.776.626.093,1.233.188,1.824.28l.15.026C514.664,595.5,516.86,595.909,518.721,596.355Z" transform="translate(-234.788 -434.447)" fill="#6c63ff" opacity="0.1" style="isolation:isolate"/><path d="M794.059,277.246a.941.941,0,0,1-.1.121,1.719,1.719,0,0,1-.726.364h0a7.313,7.313,0,0,1-1.637.264h-.166a7.1,7.1,0,0,1-.948-.032,4.4,4.4,0,0,0-.694-.045h-.032a4.933,4.933,0,0,0-.99.246,8.785,8.785,0,0,1-2.191.312h-.264c-.829,0-1.668-.029-2.5-.024h-.4c-1.425.037-2.843.264-4.269.288h-.457a6.717,6.717,0,0,1-3.936-1.177,1.554,1.554,0,0,1-.528-.591,1.659,1.659,0,0,1-.092-.792,1.864,1.864,0,0,1,.478-1.32,2.072,2.072,0,0,1,.76-.367c.483-.156.969-.306,1.452-.457s1.035-.311,1.555-.465l.1-.032.29-.087.188-.063a3.058,3.058,0,0,0,.649-.3,2.152,2.152,0,0,0,.668-.668c.029-.048.061-.1.087-.148s0-.082-.018-.124c-.045-.33-.079-.668-.137-.99a3.961,3.961,0,0,1-1.951-1.1,6.276,6.276,0,0,1-1.138-1.539,32.213,32.213,0,0,1-1.486-3.928,35.007,35.007,0,0,0-2.951-5.665c-1.008-1.684-2.022-3.374-3.168-4.966-.763-1.056-1.584-2.062-2.339-3.12A27.715,27.715,0,0,1,762.653,241a13.06,13.06,0,0,0-.547-2,20.332,20.332,0,0,0-1.93-3.025,10.013,10.013,0,0,1-1.4-3.582c-.132-.723-.354-1.5-1.074-1.584h0l-.077.15a34.61,34.61,0,0,1-5.28,8.231,8.716,8.716,0,0,0-.985,1.132,10.9,10.9,0,0,0-.634,1.22,7.916,7.916,0,0,1-1.4,2.051,4.008,4.008,0,0,1-.554.467,2.978,2.978,0,0,1-.869.436h0a2.556,2.556,0,0,1-.375.084c0,.032.013.061.016.092s.016.069.021.1a12.407,12.407,0,0,1-.483,6.317c-.019.063-.04.124-.063.187q-.164.444-.357.871c-.322.7-.7,1.37-1.006,2.08-.05.121-.1.243-.145.364-1.056,2.827-.792,5.985-.929,9.023a9.938,9.938,0,0,1-.235,1.975c-.18.731-.467,1.486-.626,2.241a3.8,3.8,0,0,0-.034,1.729l-.063.024c-.283.106-.57.2-.858.29v.04c.1.591.2,1.183.306,1.771a2.592,2.592,0,0,0,.544,1.415,1.921,1.921,0,0,1,.264.264c.209.327.024.76.063,1.148.058.549.565,1.016.486,1.563a1.03,1.03,0,0,1-.618.734,1.827,1.827,0,0,1-.407.129l-.087.018c-.158.029-.317.045-.475.061a22.146,22.146,0,0,1-5.908.058c-.385-.066-.768-.153-1.159-.185a8.643,8.643,0,0,0-1.478.061,72.62,72.62,0,0,1-10.874.211,3.012,3.012,0,0,1-2.524-1.011,2.924,2.924,0,0,1-.055-2.294,2.471,2.471,0,0,1,.319-.792.518.518,0,0,1,.058-.074,2.631,2.631,0,0,1,2.186-.618l2.571.077a2.413,2.413,0,0,0,.755-.058,7.949,7.949,0,0,0,1.125-.641c.491-.235,1.109-.264,1.462-.665l.045-.058a3.126,3.126,0,0,0,.174-.264c0-.018.024-.037.037-.055h0a.491.491,0,0,1,.032-.047,4.178,4.178,0,0,1,1.354-.842,1.424,1.424,0,0,0,.2-.14l.053-.048a5.418,5.418,0,0,1-1.283-1.291,1.3,1.3,0,0,1-.293-.512.741.741,0,0,1,.032-.43.643.643,0,0,1,.042-.1l.013-.026c.18-.354.549-.673.752-1.035a.168.168,0,0,0,.018-.037,1.631,1.631,0,0,0-.079-1.771c.211-3.477,1.167-6.864,1.378-10.351.084-1.381.05-2.767.114-4.152s.211-2.73.367-4.089c.349-3.107,1.193-6.151,1.074-9.271a5.668,5.668,0,0,1,.037-.871.522.522,0,0,1,0-.063,5.354,5.354,0,0,1,.589-1.827,14.027,14.027,0,0,1,1.3-1.827c1.623-2.112,3.574-4.224,4.152-6.821a14.741,14.741,0,0,1,1.616-3.775,6.648,6.648,0,0,1,1.412-1.983,6.223,6.223,0,0,0,.932-.792,7.444,7.444,0,0,0,.7-2c.132-.346.335-.663.436-1.019a.538.538,0,0,1,.026-.108,7.2,7.2,0,0,0,.093-1.088,2.442,2.442,0,0,1,.029-.311h0a11.025,11.025,0,0,1,.9-3.017c.055-.121.108-.245.161-.367a11.314,11.314,0,0,1-3.168-2.748,6.476,6.476,0,0,1-.768-1.159,14.343,14.343,0,0,1-.924-3.493c-.612-2.819-2.014-5.475-2.209-8.358a9.246,9.246,0,0,0-.306-2.619,5.214,5.214,0,0,0-.3-.655c-.047-.09-.092-.18-.14-.264l-.053-.1-.135-.264-.216.169A158.141,158.141,0,0,1,720.544,202.8l-.507.3a1.847,1.847,0,0,0-.671.549c-.021.034-.04.069-.058.1h0c-.121.251-.153.528-.264.792a2.162,2.162,0,0,1-1.47,1.169,4.541,4.541,0,0,1-3.339-.43,4.048,4.048,0,0,1-.38-.211,5.154,5.154,0,0,1-.971.414,11.505,11.505,0,0,1-3.255.29,9.777,9.777,0,0,0-3.244.359,8.107,8.107,0,0,1-2.08.66,1.946,1.946,0,0,1-.248,0,3.6,3.6,0,0,1-1.177-.346l-.216-.1a3.493,3.493,0,0,1-.327-.177,1.8,1.8,0,0,1-.319-.251,1.168,1.168,0,0,1-.3-.5.841.841,0,0,1,0-.42.264.264,0,0,1,.09-.158.282.282,0,0,1,.156-.04,4.769,4.769,0,0,1,.9.077,3.237,3.237,0,0,0,.528.029h.1a1.145,1.145,0,0,0,.792-.449.488.488,0,0,0,.069-.127h0a.583.583,0,0,0,.047-.235.388.388,0,0,0,0-.061c-.111-.05-.222-.1-.327-.161-.055-.029-.108-.061-.161-.092l-.032-.021a1.794,1.794,0,0,1-.264-.219.922.922,0,0,1-.135-.169,1.016,1.016,0,0,1-.156-.317h0a1.419,1.419,0,0,0-.657.018c-.288.079-.578.248-.863.306a.765.765,0,0,1-.436-.018c-.412-.148-.557-.649-.644-1.08-.016-.082-.034-.166-.047-.251h0a1.331,1.331,0,0,1,0-.491,1.809,1.809,0,0,1,.694-.905l.866-.726.063-.053a1.512,1.512,0,0,0-.04-.214,1.348,1.348,0,0,1,0-.494,1.8,1.8,0,0,1,.694-.9l1.916-1.613a2.253,2.253,0,0,1,1.217-.649c.694-.047,1.249.528,1.769.99a4.015,4.015,0,0,0,2.323,1.114,3.416,3.416,0,0,0,1.227-.169l.224-.074c-.048-.1-.1-.2-.14-.293-.077-.161-.153-.325-.227-.488a5.243,5.243,0,0,0,3-1.428c.853-.739,1.584-1.613,2.445-2.339.929-.792,2-1.381,2.938-2.144,2.191-1.777,3.646-4.387,5.99-5.953a7.781,7.781,0,0,0,2.307-1.8c.172-.264.3-.528.478-.792a8.359,8.359,0,0,1,2.32-1.705,11.54,11.54,0,0,0,2.133-2.128c.459-.552.921-1.1,1.359-1.671.4-.752.744-1.539,1.167-2.281a11.22,11.22,0,0,1,1.249-1.763c.108-.211.219-.422.338-.628s.206-.346.317-.528c.077-.119.156-.232.238-.348-.24-.425-.47-.792-.578-.953l-.053-.071a7.9,7.9,0,0,0-.745-.7,7.049,7.049,0,0,1-.818-.174,7.7,7.7,0,0,1-5.665-7.436.074.074,0,0,1,0-.024,7.656,7.656,0,0,1,.839-3.479c.111-.216.23-.425.359-.628a2.363,2.363,0,0,1-.351-.143,1.391,1.391,0,0,1-.491-.4,1.165,1.165,0,0,1-.2-.512,2.611,2.611,0,0,1,.19-1.278,6.072,6.072,0,0,1,.246-.57.213.213,0,0,0,.018-.034,7.336,7.336,0,0,1,6.209-3.939,11.182,11.182,0,0,1,7.489,2.986,10.031,10.031,0,0,1,1.7,1.787,10.815,10.815,0,0,1,1.769,5.5,8.448,8.448,0,0,1-.032,1.827,4.343,4.343,0,0,1-.132.639c-.034.124-.079.248-.127.372a2.45,2.45,0,0,1-.119.264v.013c-.04.084-.084.164-.129.243l-.024.034-.034.055c.021.05.045.1.069.153s.045.1.071.145h.032c.528.042,1.016.116,1.555.158a3.584,3.584,0,0,1,.75.116,5.012,5.012,0,0,1,1.37.855c1.1.776,2.45,1.138,3.529,1.94,1.584,1.183,2.376,3.136,3.337,4.886,1.267,2.344,3.331,4.34,4.242,6.848q.618,1.708,1.241,3.411a53.135,53.135,0,0,0,2.722,6.56c1.531,2.92,3.6,5.544,4.831,8.611a1.373,1.373,0,0,0,.644.713,56.028,56.028,0,0,1,4.448,7.442,13.955,13.955,0,0,1,1.518,4.311,10.4,10.4,0,0,1-.33,4.028,19.559,19.559,0,0,1-.773,2.286,3.779,3.779,0,0,0-.264.816v.087a7.44,7.44,0,0,0,.193,1.515,2.8,2.8,0,0,1-.135,1.209c-.021.061-.045.121-.069.182a6.513,6.513,0,0,0-.414.961.977.977,0,0,0-.021.121,4.9,4.9,0,0,0,.264,1.724,23.141,23.141,0,0,1,.264,6.336c-.061,1.056.792,1.9,1.5,2.682a28.91,28.91,0,0,1,3.347,4.868,15.605,15.605,0,0,1,1.365,2.73,22.846,22.846,0,0,1,.737,3.366c.673,3.485,2.872,6.563,3.469,10.055a8.975,8.975,0,0,0,2.041,4.324,9.176,9.176,0,0,1,.879,1.056,4.234,4.234,0,0,1,.436.95,7.05,7.05,0,0,1,.362,2.41,3.63,3.63,0,0,0,.066,1.172c.248.81,1.135,1.257,1.5,2.02s.114,1.74.264,2.606a2.812,2.812,0,0,0,1.056,1.758c-.211.185-.433.354-.66.528a2.638,2.638,0,0,1,.547.576,2.585,2.585,0,0,1,.264.467c.348.81.359,1.774.644,2.64a1.9,1.9,0,0,1,.188,1.1,1.205,1.205,0,0,0-.09.327c0,.238.248.393.343.61A.654.654,0,0,1,794.059,277.246Z" transform="translate(-515.691 -111.297)" fill="url(#a)"/><path d="M834.535,206.886A16.5,16.5,0,0,0,839,204.639l4.913-3.128a4.273,4.273,0,0,1-3.168-2.207,11.145,11.145,0,0,1-1.2-3.8,19.908,19.908,0,0,0-5.647,3.7c-.676.583-2.112,1.465-2.32,2.376s1.122,1.65,1.637,2.26C833.392,204.035,835.058,206.741,834.535,206.886Z" transform="translate(-612.037 -143.891)" fill="#fbbebe"/><path d="M834.535,206.886A16.5,16.5,0,0,0,839,204.639l4.913-3.128a4.273,4.273,0,0,1-3.168-2.207,11.145,11.145,0,0,1-1.2-3.8,19.908,19.908,0,0,0-5.647,3.7c-.676.583-2.112,1.465-2.32,2.376s1.122,1.65,1.637,2.26C833.392,204.035,835.058,206.741,834.535,206.886Z" transform="translate(-612.037 -143.891)" opacity="0.1" style="isolation:isolate"/><path d="M711.359,333a5.464,5.464,0,0,1-2.756.834,4,4,0,0,1-2.32-1.106c-.528-.459-1.072-1.032-1.766-.985a2.263,2.263,0,0,0-1.214.644l-1.914,1.6a1.8,1.8,0,0,0-.694.9,1.779,1.779,0,0,0,.045.744c.087.428.232.927.644,1.072s.861-.166,1.3-.285a1.526,1.526,0,0,1,1.5.441.889.889,0,0,1,.264.575c0,.478-.528.792-1.014.816s-.95-.135-1.431-.106a.219.219,0,0,0-.245.19v.006a1.009,1.009,0,0,0,.309.919,2.679,2.679,0,0,0,.861.528,3.508,3.508,0,0,0,1.177.343,6.251,6.251,0,0,0,2.323-.657,10.043,10.043,0,0,1,3.242-.356,11.441,11.441,0,0,0,3.25-.288,3.685,3.685,0,0,0,2.452-2,.48.48,0,0,0,.045-.306.508.508,0,0,0-.222-.264c-1.473-1.09-2.07-2.415-3.727-3.2Z" transform="translate(-515.706 -244.165)" fill="#fbbebe"/><path d="M711.359,333a5.464,5.464,0,0,1-2.756.834,4,4,0,0,1-2.32-1.106c-.528-.459-1.072-1.032-1.766-.985a2.263,2.263,0,0,0-1.214.644l-1.914,1.6a1.8,1.8,0,0,0-.694.9,1.779,1.779,0,0,0,.045.744c.087.428.232.927.644,1.072s.861-.166,1.3-.285a1.526,1.526,0,0,1,1.5.441.889.889,0,0,1,.264.575c0,.478-.528.792-1.014.816s-.95-.135-1.431-.106a.219.219,0,0,0-.245.19v.006a1.009,1.009,0,0,0,.309.919,2.679,2.679,0,0,0,.861.528,3.508,3.508,0,0,0,1.177.343,6.251,6.251,0,0,0,2.323-.657,10.043,10.043,0,0,1,3.242-.356,11.441,11.441,0,0,0,3.25-.288,3.685,3.685,0,0,0,2.452-2,.48.48,0,0,0,.045-.306.508.508,0,0,0-.222-.264c-1.473-1.09-2.07-2.415-3.727-3.2Z" transform="translate(-515.706 -244.165)" opacity="0.1" style="isolation:isolate"/><path d="M767.4,228.442a3.183,3.183,0,0,0-2.793-.325,6.03,6.03,0,0,0-2.4,1.6,11.068,11.068,0,0,0-1.7,2.241c-.449.792-.792,1.621-1.241,2.41a25.639,25.639,0,0,1-2.867,3.894,11.055,11.055,0,0,1-2.13,2.112,8.282,8.282,0,0,0-2.318,1.695c-.177.248-.3.528-.478.779a7.665,7.665,0,0,1-2.3,1.782c-2.339,1.557-3.794,4.15-5.979,5.916-.943.76-2.006,1.357-2.933,2.133-.863.721-1.584,1.584-2.444,2.323a5.229,5.229,0,0,1-2.994,1.418,15.421,15.421,0,0,0,2.93,4.612,5.226,5.226,0,0,0,4.968,1.624,2.159,2.159,0,0,0,1.471-1.162,4.951,4.951,0,0,1,.311-.9,1.849,1.849,0,0,1,.668-.546,157.825,157.825,0,0,0,20.092-13.92c1.7-1.383,3.382-2.621,5.124-3.96a11.2,11.2,0,0,0,1.724-1.51,5.739,5.739,0,0,0,.7-6.322,14.989,14.989,0,0,0-1.6-2.167A19.042,19.042,0,0,0,767.4,228.442Z" transform="translate(-540.838 -167.762)" fill="#ec5e04"/><path d="M767.4,228.442a3.183,3.183,0,0,0-2.793-.325,6.03,6.03,0,0,0-2.4,1.6,11.068,11.068,0,0,0-1.7,2.241c-.449.792-.792,1.621-1.241,2.41a25.639,25.639,0,0,1-2.867,3.894,11.055,11.055,0,0,1-2.13,2.112,8.282,8.282,0,0,0-2.318,1.695c-.177.248-.3.528-.478.779a7.665,7.665,0,0,1-2.3,1.782c-2.339,1.557-3.794,4.15-5.979,5.916-.943.76-2.006,1.357-2.933,2.133-.863.721-1.584,1.584-2.444,2.323a5.229,5.229,0,0,1-2.994,1.418,15.421,15.421,0,0,0,2.93,4.612,5.226,5.226,0,0,0,4.968,1.624,2.159,2.159,0,0,0,1.471-1.162,4.951,4.951,0,0,1,.311-.9,1.849,1.849,0,0,1,.668-.546,157.825,157.825,0,0,0,20.092-13.92c1.7-1.383,3.382-2.621,5.124-3.96a11.2,11.2,0,0,0,1.724-1.51,5.739,5.739,0,0,0,.7-6.322,14.989,14.989,0,0,0-1.6-2.167A19.042,19.042,0,0,0,767.4,228.442Z" transform="translate(-540.838 -167.762)" fill="#ec5e04" opacity="0.1" style="isolation:isolate"/><path d="M786.516,596.106a4.043,4.043,0,0,0-1.354.84c-.106.137-.177.3-.29.43-.351.412-.974.43-1.463.665a7.079,7.079,0,0,1-1.122.636,2.437,2.437,0,0,1-.758.058l-2.566-.077a2.553,2.553,0,0,0-2.239.681,2.421,2.421,0,0,0-.322.792,2.937,2.937,0,0,0,.055,2.281,3.045,3.045,0,0,0,2.521,1.006,72.769,72.769,0,0,0,10.86-.211,8.611,8.611,0,0,1,1.473-.061c.391.032.773.119,1.159.185a22.2,22.2,0,0,0,5.9-.058,3.079,3.079,0,0,0,.969-.206,1.027,1.027,0,0,0,.615-.731c.082-.544-.428-1.006-.483-1.552-.04-.385.145-.816-.066-1.143a1.864,1.864,0,0,0-.264-.264,2.6,2.6,0,0,1-.544-1.4l-.462-2.711a.836.836,0,0,0-.222-.512.763.763,0,0,0-.327-.135,17.522,17.522,0,0,0-6.072.214,16.311,16.311,0,0,1-3.107.156c-.449-.029-.623-.082-.958.211S786.935,595.86,786.516,596.106Z" transform="translate(-571.293 -437.496)" fill="#3f3d56"/><path d="M984.017,604.573a4.445,4.445,0,0,1-1.125.441q-1.555.454-3.1.948a2.065,2.065,0,0,0-.758.364,1.842,1.842,0,0,0-.478,1.32,1.657,1.657,0,0,0,.092.792,1.586,1.586,0,0,0,.528.586,6.93,6.93,0,0,0,4.211,1.172c1.484,0,2.957-.251,4.44-.29,1.792-.048,3.632.206,5.356-.3a4.562,4.562,0,0,1,1.019-.248,4.328,4.328,0,0,1,.692.045,7.338,7.338,0,0,0,2.751-.251,1.693,1.693,0,0,0,.729-.362.682.682,0,0,0,.2-.745c-.1-.214-.338-.37-.341-.6a1.137,1.137,0,0,1,.087-.327,1.854,1.854,0,0,0-.187-1.1c-.341-1.019-.285-2.191-.895-3.076a3.894,3.894,0,0,0-2.793-1.388,7.742,7.742,0,0,0-2.6.074c-.964.206-1.864.636-2.809.911a9.187,9.187,0,0,1-3.379.32c-.755-.063-.5.055-.752.689A2.248,2.248,0,0,1,984.017,604.573Z" transform="translate(-720.219 -442.699)" fill="#3f3d56"/><circle cx="7.656" cy="7.656" r="7.656" transform="translate(213.961 44.022)" fill="#fbbebe"/><path d="M873.457,308.343a13.565,13.565,0,0,1-8.711,2.965,7.155,7.155,0,0,1-3.815-.813c-.079-.433-.111-.9-.19-1.333a4.868,4.868,0,0,1-3.083-2.627,31.585,31.585,0,0,1-1.486-3.9A34.838,34.838,0,0,0,853.225,297c-1.008-1.674-2.019-3.353-3.168-4.934-.76-1.056-1.584-2.049-2.336-3.1a27.455,27.455,0,0,1-4.5-9.783,12.776,12.776,0,0,0-.547-1.988,20.237,20.237,0,0,0-1.927-3.007,9.939,9.939,0,0,1-1.4-3.561c-.129-.718-.351-1.494-1.072-1.568h0a34.57,34.57,0,0,1-5.351,8.329,8.635,8.635,0,0,0-.985,1.125,10.82,10.82,0,0,0-.634,1.214,7.817,7.817,0,0,1-1.4,2.038,3.263,3.263,0,0,1-1.8.982,12.311,12.311,0,0,1-.866,7.524c-.32.7-.7,1.362-1,2.067-1.23,2.9-.945,6.18-1.074,9.329a9.8,9.8,0,0,1-.232,1.961c-.319,1.288-.979,2.658-.66,3.947a20.735,20.735,0,0,1-10.493.652,5.057,5.057,0,0,1-1.956-.594,5.383,5.383,0,0,1-1.283-1.283,1.289,1.289,0,0,1-.293-.509c-.137-.6.528-1.056.837-1.584a1.6,1.6,0,0,0-.061-1.8c.211-3.456,1.167-6.829,1.378-10.3.084-1.373.05-2.751.114-4.126s.211-2.714.364-4.065c.349-3.086,1.193-6.111,1.074-9.213a5.358,5.358,0,0,1,.636-2.743,13.812,13.812,0,0,1,1.294-1.816c1.621-2.093,3.569-4.192,4.147-6.776a14.681,14.681,0,0,1,1.613-3.751,6.643,6.643,0,0,1,1.41-1.972,6.172,6.172,0,0,0,.932-.792,7.324,7.324,0,0,0,.7-1.985c.132-.343.335-.66.433-1.014a5.776,5.776,0,0,0,.119-1.188,11.114,11.114,0,0,1,1.093-3.683,11.288,11.288,0,0,1-3.168-2.73,6.7,6.7,0,0,1-.766-1.154,14.156,14.156,0,0,1-.924-3.469c-.61-2.8-2.012-5.441-2.207-8.3a9.223,9.223,0,0,0-.3-2.6,8.132,8.132,0,0,0-.491-1.016,4.169,4.169,0,0,1-.417-1.024,17.819,17.819,0,0,1,0-2.376,17.186,17.186,0,0,0-.509-2.038,9.678,9.678,0,0,1-.077-2.693,22.048,22.048,0,0,0,.206-3.189,12.321,12.321,0,0,1,3.313-9.488l.061-.061c.5-.528,1.056-1,1.51-1.555.618-.75,1.056-1.631,1.708-2.36.285-.325.607-.615.89-.942a7.83,7.83,0,0,1,.858-.961,1.32,1.32,0,0,1,1.193-.319,3.307,3.307,0,0,0,.364,1.125c.549.042,1.037.119,1.584.161a3.582,3.582,0,0,1,.75.116,4.877,4.877,0,0,1,1.367.847c1.1.773,2.447,1.132,3.527,1.93,1.584,1.175,2.376,3.115,3.332,4.855,1.264,2.331,3.326,4.314,4.224,6.806l1.238,3.39a52.941,52.941,0,0,0,2.719,6.518c1.529,2.9,3.6,5.52,4.826,8.558a1.378,1.378,0,0,0,.641.708,55.193,55.193,0,0,1,4.443,7.392,13.757,13.757,0,0,1,1.515,4.284,12.469,12.469,0,0,1-1.1,6.275,3.272,3.272,0,0,0-.264.9,7.334,7.334,0,0,0,.193,1.5,2.785,2.785,0,0,1-.2,1.383,6.319,6.319,0,0,0-.415.956,4.162,4.162,0,0,0,.248,1.832,22.82,22.82,0,0,1,.264,6.293c-.061,1.056.792,1.893,1.5,2.666a28.516,28.516,0,0,1,3.345,4.836,15.623,15.623,0,0,1,1.362,2.714,22.492,22.492,0,0,1,.737,3.345c.67,3.461,2.867,6.52,3.463,9.992a8.879,8.879,0,0,0,2.038,4.3,9.32,9.32,0,0,1,.879,1.056,4.245,4.245,0,0,1,.433.945,6.962,6.962,0,0,1,.362,2.394,3.583,3.583,0,0,0,.066,1.164c.248.805,1.135,1.249,1.5,2.006s.114,1.729.264,2.59A2.789,2.789,0,0,0,873.457,308.343Z" transform="translate(-596.341 -149.207)" fill="#ec5e04"/><path d="M717.359,324a5.465,5.465,0,0,1-2.756.834,4,4,0,0,1-2.32-1.106c-.528-.459-1.072-1.032-1.766-.985a2.263,2.263,0,0,0-1.214.644l-1.914,1.6a1.8,1.8,0,0,0-.694.9,1.779,1.779,0,0,0,.045.744c.087.428.232.927.644,1.072s.86-.166,1.3-.285a1.526,1.526,0,0,1,1.5.441.89.89,0,0,1,.264.575c0,.478-.528.792-1.014.816s-.95-.135-1.431-.106a.219.219,0,0,0-.245.19v.006a1.008,1.008,0,0,0,.309.919,2.681,2.681,0,0,0,.861.528,3.507,3.507,0,0,0,1.177.343,6.249,6.249,0,0,0,2.323-.657,10.045,10.045,0,0,1,3.242-.356,11.445,11.445,0,0,0,3.25-.288,3.686,3.686,0,0,0,2.452-2,.48.48,0,0,0,.045-.306.508.508,0,0,0-.222-.264c-1.473-1.09-2.07-2.415-3.727-3.2Z" transform="translate(-520.122 -237.541)" fill="#fbbebe"/><path d="M814.8,160.537a6.54,6.54,0,0,0-1.278.554,2.2,2.2,0,0,1-1.806-.1,1.4,1.4,0,0,1-.494-.4,1.954,1.954,0,0,1-.013-1.779,7.256,7.256,0,0,1,6.468-4.514,11.2,11.2,0,0,1,7.479,2.965,10.219,10.219,0,0,1,1.7,1.777,10.73,10.73,0,0,1,1.766,5.47,7.126,7.126,0,0,1-.161,2.45,2.977,2.977,0,0,1-1.389,1.872,2.743,2.743,0,0,1-2.423-.106,10.219,10.219,0,0,1-2.072-1.51,3.082,3.082,0,0,0-1.032-.657,1.056,1.056,0,0,0-1.117.264c-.354.425-.264,1.122-.586,1.584a1.843,1.843,0,0,1-1.557.528,1.715,1.715,0,0,1-1.476-.5,1.857,1.857,0,0,1-.148-1.513,4.955,4.955,0,0,0,.264-1.544c-.108-1.056-1.032-1.705-1.32-2.677-.188-.636.224-.905.182-1.481A.831.831,0,0,0,814.8,160.537Z" transform="translate(-596.906 -113.564)" fill="#3f3d56"/><path d="M887.84,403.711v.066h0a34.572,34.572,0,0,1-5.351,8.329,8.625,8.625,0,0,0-.985,1.125,10.855,10.855,0,0,0-.634,1.214,7.814,7.814,0,0,1-1.4,2.038l-1.911.956,6.072-31.678Z" transform="translate(-645.897 -283.925)" opacity="0.1" style="isolation:isolate"/><path d="M849.444,236.635a11.19,11.19,0,0,1-1.724,1.51c-1.742,1.32-3.432,2.566-5.124,3.96q-2.046,1.666-4.15,3.263a4.16,4.16,0,0,1-.417-1.024,17.819,17.819,0,0,1,0-2.376,17.152,17.152,0,0,0-.51-2.038,9.681,9.681,0,0,1-.076-2.693,22.073,22.073,0,0,0,.206-3.189,12.32,12.32,0,0,1,3.329-9.506l.061-.061a4.633,4.633,0,0,1,.9-.4,3.184,3.184,0,0,1,2.793.338,19.048,19.048,0,0,1,3.8,3.727,15,15,0,0,1,1.6,2.167A5.739,5.739,0,0,1,849.444,236.635Z" transform="translate(-616.326 -164.794)" opacity="0.1" style="isolation:isolate"/><path d="M773.4,219.442a3.184,3.184,0,0,0-2.793-.325,6.03,6.03,0,0,0-2.4,1.6,11.063,11.063,0,0,0-1.7,2.241c-.449.792-.792,1.621-1.241,2.41a25.632,25.632,0,0,1-2.867,3.894,11.054,11.054,0,0,1-2.13,2.112,8.279,8.279,0,0,0-2.318,1.695c-.177.248-.3.528-.478.779a7.664,7.664,0,0,1-2.3,1.782c-2.339,1.558-3.794,4.15-5.979,5.916-.942.76-2.006,1.357-2.933,2.133-.863.721-1.584,1.584-2.445,2.323a5.228,5.228,0,0,1-2.994,1.418,15.42,15.42,0,0,0,2.93,4.612,5.226,5.226,0,0,0,4.968,1.624,2.158,2.158,0,0,0,1.47-1.162,4.949,4.949,0,0,1,.312-.9,1.847,1.847,0,0,1,.668-.546,157.832,157.832,0,0,0,20.092-13.92c1.7-1.383,3.382-2.621,5.124-3.96a11.193,11.193,0,0,0,1.724-1.51,5.74,5.74,0,0,0,.7-6.322,15.006,15.006,0,0,0-1.6-2.167A19.041,19.041,0,0,0,773.4,219.442Z" transform="translate(-545.254 -161.138)" fill="#ec5e04"/><g transform="translate(214.089 44.136)" opacity="0.1"><path d="M818.8,177.364a1.753,1.753,0,0,1-1.476-.5,1.868,1.868,0,0,1-.148-1.513,4.953,4.953,0,0,0,.264-1.544c-.108-1.056-1.032-1.705-1.32-2.677-.187-.636.224-.905.182-1.481a.836.836,0,0,0-.987-.681,6.545,6.545,0,0,0-1.278.554,2.2,2.2,0,0,1-1.806-.1,1.4,1.4,0,0,1-.494-.4,1.954,1.954,0,0,1-.013-1.779c0-.021.018-.04.026-.061a6.388,6.388,0,0,0-.554,1.117,1.954,1.954,0,0,0,.013,1.779,1.4,1.4,0,0,0,.494.4,2.2,2.2,0,0,0,1.806.1,6.545,6.545,0,0,1,1.278-.554.836.836,0,0,1,.987.681c.042.576-.37.845-.182,1.481.282.971,1.206,1.631,1.32,2.677a4.645,4.645,0,0,1-.264,1.544,1.838,1.838,0,0,0,.148,1.513,2.5,2.5,0,0,0,3.033-.032,2.219,2.219,0,0,0,.282-.81A2.235,2.235,0,0,1,818.8,177.364Z" transform="translate(-810.988 -167.19)"/><path d="M854.425,198.862a2.743,2.743,0,0,1-2.424-.106,10.227,10.227,0,0,1-2.072-1.51,3.08,3.08,0,0,0-1.032-.657,1.056,1.056,0,0,0-1.117.264,2,2,0,0,0-.33.887,1.116,1.116,0,0,1,.919-.1,3.082,3.082,0,0,1,1.032.657,10.416,10.416,0,0,0,2.072,1.51,2.75,2.75,0,0,0,2.423.106,2.938,2.938,0,0,0,1.354-1.777A2.443,2.443,0,0,1,854.425,198.862Z" transform="translate(-837.824 -188.783)"/></g><circle cx="7.92" cy="7.92" r="7.92" transform="translate(157.072 151.86)" fill="#3f3d56"/><circle cx="7.92" cy="7.92" r="7.92" transform="translate(157.072 151.86)" opacity="0.1" style="isolation:isolate"/><circle cx="5.016" cy="5.016" r="5.016" transform="translate(159.975 154.764)" fill="#65617d"/><circle cx="5.016" cy="5.016" r="5.016" transform="translate(159.975 154.764)" opacity="0.1" style="isolation:isolate"/><path d="M602,556.052l5.2,11.747a1.008,1.008,0,0,0,1.829.037L615.2,555.26Z" transform="translate(-443.081 -408.679)" fill="#3f3d56"/><path d="M602,556.052l5.2,11.747a1.008,1.008,0,0,0,1.829.037L615.2,555.26Z" transform="translate(-443.081 -408.679)" opacity="0.1" style="isolation:isolate"/><circle cx="7.92" cy="7.92" r="7.92" transform="translate(107.706 151.86)" fill="#3f3d56"/><circle cx="7.92" cy="7.92" r="7.92" transform="translate(107.706 151.86)" opacity="0.1" style="isolation:isolate"/><circle cx="5.016" cy="5.016" r="5.016" transform="translate(110.61 154.764)" fill="#65617d"/><circle cx="5.016" cy="5.016" r="5.016" transform="translate(110.61 154.764)" opacity="0.1" style="isolation:isolate"/><path d="M415,556.052l5.2,11.747a1.008,1.008,0,0,0,1.829.037L428.2,555.26Z" transform="translate(-305.446 -408.679)" fill="#3f3d56"/><path d="M415,556.052l5.2,11.747a1.008,1.008,0,0,0,1.829.037L428.2,555.26Z" transform="translate(-305.446 -408.679)" opacity="0.1" style="isolation:isolate"/><path d="M699.647,341.1a1.2,1.2,0,0,0-.657-.945,1.228,1.228,0,0,0-1.611.648l-.016.038-4.543,11.28-1.32,50.685h2.112l.792-50.577,5.132-10.364A1.254,1.254,0,0,0,699.647,341.1Z" transform="translate(-508.954 -250.286)" fill="#3f3d56"/><path d="M368.5,548.408l7.128-4.488,76.952-.66,1.98,5.148Z" transform="translate(-271.221 -399.847)" fill="#ec5e04"/><path d="M368.5,565.156V560.4l87.453-.845-.084,3.221H370.084v2.376Z" transform="translate(-271.221 -411.844)" fill="#3f3d56"/><circle cx="7.92" cy="7.92" r="7.92" transform="translate(100.447 154.632)" fill="#3f3d56"/><circle cx="5.016" cy="5.016" r="5.016" transform="translate(103.351 157.536)" fill="#65617d"/><path d="M387.5,566.552l5.2,11.747a1.008,1.008,0,0,0,1.829.037L400.7,565.76Z" transform="translate(-285.205 -416.408)" fill="#3f3d56"/><circle cx="7.92" cy="7.92" r="7.92" transform="translate(161.955 154.632)" fill="#3f3d56"/><circle cx="5.016" cy="5.016" r="5.016" transform="translate(164.859 157.536)" fill="#65617d"/><path d="M620.5,566.552l5.2,11.747a1.008,1.008,0,0,0,1.829.037L633.7,565.76Z" transform="translate(-456.697 -416.408)" fill="#3f3d56"/><rect width="32.998" height="18.215" transform="translate(107.178 127.838)" fill="#65617d"/><rect width="10.031" height="2.112" transform="translate(118.794 131.005)" opacity="0.1" style="isolation:isolate"/><rect width="7.524" height="1.584" transform="translate(120.048 131.269)" opacity="0.1" style="isolation:isolate"/><rect width="32.998" height="18.215" transform="translate(140.705 127.838)" fill="#65617d"/><rect width="10.031" height="2.112" transform="translate(152.32 131.005)" opacity="0.1" style="isolation:isolate"/><rect width="7.524" height="1.584" transform="translate(153.574 131.269)" opacity="0.1" style="isolation:isolate"/><rect width="32.998" height="18.215" transform="translate(107.178 109.095)" fill="#65617d"/><rect width="10.031" height="2.112" transform="translate(118.794 112.262)" opacity="0.1" style="isolation:isolate"/><rect width="7.524" height="1.584" transform="translate(120.048 112.526)" opacity="0.1" style="isolation:isolate"/><rect width="32.998" height="18.215" transform="translate(140.705 109.095)" fill="#65617d"/><rect width="10.031" height="2.112" transform="translate(152.32 112.262)" opacity="0.1" style="isolation:isolate"/><rect width="7.524" height="1.584" transform="translate(153.574 112.526)" opacity="0.1" style="isolation:isolate"/><rect width="32.998" height="18.215" transform="translate(107.178 90.088)" fill="#65617d"/><rect width="10.031" height="2.112" transform="translate(118.794 93.256)" opacity="0.1" style="isolation:isolate"/><rect width="7.524" height="1.584" transform="translate(120.048 93.52)" opacity="0.1" style="isolation:isolate"/><rect width="32.998" height="18.215" transform="translate(140.705 90.088)" fill="#65617d"/><rect width="10.031" height="2.112" transform="translate(152.32 93.256)" opacity="0.1" style="isolation:isolate"/><rect width="7.524" height="1.584" transform="translate(153.574 93.52)" opacity="0.1" style="isolation:isolate"/><rect width="32.998" height="18.215" transform="translate(140.705 71.081)" fill="#65617d"/><rect width="10.031" height="2.112" transform="translate(152.32 74.249)" opacity="0.1" style="isolation:isolate"/><rect width="7.524" height="1.584" transform="translate(153.574 74.513)" opacity="0.1" style="isolation:isolate"/></svg>