<svg xmlns="http://www.w3.org/2000/svg" width="302" height="156.622" viewBox="0 0 302 156.622"><path d="M196.908,336.512l-7.439-11.806,7.443,13.092,0,1.345q.8-.009,1.576-.061l-.607-17.281.008-.134-.014-.025-.058-1.633L205.6,307.07l-7.786,11.716-.023.346-.458-13.056,6.687-13.387-6.739,11.093-.314-27.062v0l-.153,21.337-6.39-8.537,6.4,10.375.03,11.686-5.929-11.287,5.932,13,.016,6.5-8.612-15.715,8.619,17.982Z" transform="translate(-124.231 -182.549)" fill="#e2e2e2"/><path d="M384.62,336.512l-7.439-11.806,7.443,13.092,0,1.345q.8-.009,1.576-.061L385.6,321.8l.008-.134-.014-.025-.058-1.633,7.779-12.939-7.786,11.716-.023.346-.458-13.056,6.687-13.387-6.739,11.093-.314-27.062v0l-.153,21.337-6.39-8.537,6.4,10.375.03,11.686-5.929-11.287,5.932,13,.017,6.5-8.612-15.715,8.619,17.982Z" transform="translate(-248.104 -182.549)" fill="#e2e2e2"/><path d="M13.685,371.035,8.313,362.51l5.374,9.453,0,.972q.575-.007,1.138-.044l-.438-12.478.006-.1-.01-.018-.041-1.179,5.617-9.343-5.623,8.46-.017.25-.331-9.428,4.829-9.667-4.866,8.01-.227-19.541v0l-.11,15.407L9,337.1l4.618,7.492.021,8.438-4.281-8.15,4.283,9.391.012,4.692L7.436,347.617,13.66,360.6Z" transform="translate(-4.907 -216.314)" fill="#e2e2e2"/><path d="M841.152,336.512l-7.439-11.806,7.443,13.092,0,1.345q.8-.009,1.576-.061l-.607-17.281.008-.134-.014-.025-.057-1.633,7.778-12.939-7.786,11.716-.023.346-.458-13.056,6.687-13.387-6.739,11.093-.314-27.062v0l-.153,21.337-6.39-8.537,6.4,10.375.03,11.686-5.929-11.287,5.932,13,.016,6.5L832.5,304.08l8.619,17.982Z" transform="translate(-549.374 -182.549)" fill="#e2e2e2"/><rect width="40.131" height="1.7" transform="translate(90.027 134.438)" fill="#ec5e04"/><rect width="40.131" height="1.7" transform="translate(87.986 132.737)" fill="#ec5e04"/><rect width="40.131" height="1.7" transform="translate(90.367 131.037)" fill="#ec5e04"/><rect width="40.131" height="1.7" transform="translate(94.448 129.336)" fill="#ec5e04"/><rect width="1.393" height="9.893" transform="translate(60.302 121.822)" fill="#3f3d56"/><rect width="55.646" height="1.393" transform="translate(60.299 121.696) rotate(-22.092)" fill="#3f3d56"/><rect width="12.122" height="4.737" transform="translate(34.526 141.747)" fill="#3f3d56"/><rect width="59.774" height="5.295" transform="translate(35.64 145.927)" fill="#3f3d56"/><path d="M133.68,401.85h14.351V383.806H137.3l-3.623,9.1Z" transform="translate(-88.217 -253.276)" fill="#e2e2e2"/><rect width="6.131" height="6.131" transform="translate(51.455 131.645)" fill="#fff"/><path d="M137.777,393.419h3.9v-6.13h-1.672Z" transform="translate(-90.92 -255.574)" fill="#fff"/><rect width="1.393" height="2.647" transform="translate(55.913 141.259)" fill="#3f3d56"/><path d="M143.062,401.407h-.07a1.324,1.324,0,0,1-1.324-1.324h0a1.324,1.324,0,0,1,1.324-1.324h.07v2.647Z" transform="translate(-93.489 -263.144)" fill="#3f3d56"/><path d="M295.47,431.725h-.07a1.324,1.324,0,0,1-1.324-1.324h0a1.323,1.323,0,0,1,1.324-1.324h.07v2.647Z" transform="translate(-194.064 -283.151)" fill="#3f3d56"/><path d="M101.611,415.166a6.893,6.893,0,0,0-5.358,2.667H93.53l2.647-7.375,12.331-2.432-.348,9.807h-1.19A6.894,6.894,0,0,0,101.611,415.166Z" transform="translate(-61.721 -269.26)" fill="#e2e2e2"/><circle cx="6.061" cy="6.061" r="6.061" transform="translate(33.69 144.255)" fill="#3f3d56"/><circle cx="3.19" cy="3.19" r="3.19" transform="translate(36.561 147.126)" fill="#e2e2e2"/><circle cx="5.295" cy="5.295" r="5.295" transform="translate(89.214 145.718)" fill="#3f3d56"/><circle cx="2.787" cy="2.787" r="2.787" transform="translate(91.722 148.226)" fill="#e2e2e2"/><rect width="2.926" height="21.109" transform="translate(59.397 128.022)" fill="#3f3d56"/><rect width="42.079" height="1.254" transform="translate(59.397 145.3)" fill="#3f3d56"/><rect width="1.393" height="0.557" transform="translate(48.738 138.124)" fill="#3f3d56"/><path d="M324.324,364.552a.141.141,0,0,1-.035-.108l1.922-18.172a.14.14,0,0,1,.138-.125h0a.14.14,0,0,1,.138.124l2.078,18.134a.139.139,0,0,1-.123.154h-.014l-4,.038h0A.14.14,0,0,1,324.324,364.552Zm2.03-16.993-1.772,16.759,3.689-.035Z" transform="translate(-214.001 -228.424)" fill="#3f3d56"/><path d="M99.573,415.494l.065.025a1.324,1.324,0,0,1,.77,1.706h0A1.324,1.324,0,0,1,98.7,418l-.065-.025h0l.937-2.476Z" transform="translate(-65.091 -274.187)" fill="#3f3d56"/><rect width="1.393" height="20.343" transform="translate(111.717 100.782)" fill="#3f3d56"/><circle cx="1.951" cy="1.951" r="1.951" transform="translate(59.048 120.15)" fill="#3f3d56"/><rect width="40.131" height="1.7" transform="translate(63.84 143.62)" fill="#ec5e04"/><rect width="40.131" height="1.7" transform="translate(66.22 141.92)" fill="#ec5e04"/><rect width="40.131" height="1.7" transform="translate(64.52 140.559)" fill="#ec5e04"/><rect width="40.131" height="1.7" transform="translate(66.9 138.859)" fill="#ec5e04"/><path d="M372.229,120.088a5.3,5.3,0,0,1,3.481,1.3,5.306,5.306,0,0,1,2.342-.1,5.326,5.326,0,0,1,9.711,3.022H367.019A5.327,5.327,0,0,1,372.229,120.088Z" transform="translate(-242.2 -78.513)" fill="#e2e2e2"/><path d="M281.015,169.554a5.014,5.014,0,0,1,3.291,1.226,5.021,5.021,0,0,1,2.214-.1,5.035,5.035,0,0,1,9.181,2.857H276.09A5.036,5.036,0,0,1,281.015,169.554Z" transform="translate(-182.195 -111.196)" fill="#e2e2e2"/><path d="M188.88,88.079a5.217,5.217,0,0,1,3.424,1.276,5.221,5.221,0,0,1,2.3-.1,5.239,5.239,0,0,1,9.552,2.973H183.756A5.24,5.24,0,0,1,188.88,88.079Z" transform="translate(-121.262 -57.402)" fill="#e2e2e2"/><path d="M595,145.871V188.35h16.52V145.281l-3.835.137v-8.692H604.9l-.458-19.25a5.394,5.394,0,0,0,1.912-4.5,7.385,7.385,0,0,0-.2-1.729,3.537,3.537,0,0,0,.381-4.308,3.54,3.54,0,0,0,4.658-5.331l-.071-.061a3.54,3.54,0,1,0-4.766-3.322c0,.052,0,.1,0,.154a3.542,3.542,0,0,0-4.536,2.851,3.54,3.54,0,1,0-2.546,6.5c0,.026,0,.051,0,.077a17.222,17.222,0,0,0,1.25,2.868,7.155,7.155,0,0,0-.365,2.294,5.394,5.394,0,0,0,1.912,4.5l-.458,19.25h-2.781v9.008Zm10.316-40.562h.009c.051,0,.1,0,.152,0q.048.157.109.307a3.524,3.524,0,0,0-.271-.3Z" transform="translate(-392.646 -62.484)" fill="#e2e2e2"/><rect width="50.149" height="58.016" transform="translate(193.257 98.087)" fill="#3f3d56"/><rect width="13.521" height="11.8" transform="translate(211.572 144.303)" fill="#e2e2e2"/><path d="M510.04,21.748c0,.043,0,.085,0,.128a5.882,5.882,0,0,0,1.789,4.23,5.9,5.9,0,0,0,.295.551,11.92,11.92,0,0,0-.609,3.823c0,4.48,2.311,8.113,5.163,8.113s5.162-3.632,5.162-8.113A12.293,12.293,0,0,0,521.5,27.6a5.9,5.9,0,0,0,.635-7.18,5.9,5.9,0,1,0,7.763-8.884l-.118-.1A5.9,5.9,0,1,0,521.836,5.9c0,.086,0,.172.006.257a5.9,5.9,0,0,0-7.56,4.751,5.9,5.9,0,1,0-4.243,10.842ZM520.115,17.7c.085,0,.17,0,.254-.006q.079.262.182.512a5.907,5.907,0,0,0-.452-.506Z" transform="translate(-333.495 0.004)" fill="#e2e2e2"/><path d="M529.941,151.891h5.9l-.211-8.849v0l-.772-32.448a3.774,3.774,0,0,1-3.935,0l-.772,32.448v0Z" transform="translate(-349.713 -72.978)" fill="#ec5e04"/><path d="M498.141,221.249v70.8h27.531V220.267l-6.391.228V206.01h-14.75v15.012Z" transform="translate(-328.728 -135.947)" fill="#ec5e04"/><path d="M716.77,21.748c0,.043,0,.085,0,.128a5.881,5.881,0,0,0,1.789,4.23,5.84,5.84,0,0,0,.295.551,11.914,11.914,0,0,0-.609,3.823c0,4.48,2.311,8.113,5.162,8.113s5.163-3.632,5.163-8.113a12.293,12.293,0,0,0-.336-2.882,5.9,5.9,0,0,0,.635-7.18,5.9,5.9,0,1,0,7.763-8.884l-.118-.1A5.9,5.9,0,1,0,728.567,5.9c0,.086,0,.172.006.257a5.9,5.9,0,0,0-7.56,4.751,5.9,5.9,0,1,0-4.243,10.842ZM726.846,17.7c.085,0,.17,0,.254-.006q.079.262.182.512a5.82,5.82,0,0,0-.451-.506Z" transform="translate(-469.919 0.004)" fill="#e2e2e2"/><path d="M736.674,151.893h5.9l-.983-41.3a5.816,5.816,0,0,1-3.933,0Z" transform="translate(-486.139 -72.981)" fill="#ec5e04"/><path d="M704.871,221.249v70.8H732.4V220.267l-2.262.082-4.132.146V206.01h-14.75v15.012Z" transform="translate(-465.151 -135.947)" fill="#ec5e04"/><rect width="6.802" height="6.802" transform="translate(225.814 105.089)" fill="#fff"/><rect width="6.802" height="6.802" transform="translate(214.931 105.089)" fill="#fff"/><rect width="6.802" height="6.802" transform="translate(204.048 105.089)" fill="#fff"/><rect width="6.802" height="6.802" transform="translate(225.814 115.972)" fill="#fff"/><rect width="6.802" height="6.802" transform="translate(214.931 115.972)" fill="#fff"/><rect width="6.802" height="6.802" transform="translate(204.048 115.972)" fill="#fff"/><rect width="6.802" height="6.802" transform="translate(225.814 126.855)" fill="#fff"/><rect width="6.802" height="6.802" transform="translate(214.931 126.855)" fill="#fff"/><rect width="6.802" height="6.802" transform="translate(204.048 126.855)" fill="#fff"/><rect width="6.802" height="6.802" transform="translate(179.778 102.369)" fill="#fff"/><rect width="6.802" height="6.802" transform="translate(179.778 113.252)" fill="#fff"/><rect width="6.802" height="6.802" transform="translate(179.778 124.134)" fill="#fff"/><rect width="6.802" height="6.802" transform="translate(179.778 135.017)" fill="#fff"/><rect width="6.802" height="6.802" transform="translate(250.028 102.369)" fill="#fff"/><rect width="6.802" height="6.802" transform="translate(250.028 113.252)" fill="#fff"/><rect width="6.802" height="6.802" transform="translate(250.028 124.134)" fill="#fff"/><rect width="6.802" height="6.802" transform="translate(250.028 135.017)" fill="#fff"/><rect width="302" height="0.68" transform="translate(0 155.863)" fill="#3f3d56"/></svg>