<svg id="Layer_1" data-name="Layer 1" xmlns="http://www.w3.org/2000/svg" viewBox="0 0 2056.77 394.84"><defs><style>.cls-1{fill:#fff;}</style></defs><path id="Path_2" data-name="Path 2" class="cls-1" d="M956.93,394.23c17.54.12,36.61-.24,56.84-1.36,80.65-4.46,179.76-20.94,273.66-67.12,96-47.19,108.15-86.86,192.87-98.85,90.85-12.86,128,25.53,218.66,26.64,138.94,1.72,292.63-85.43,286.73-130.65C1975.39,43.92,1466.57,2.3,957.54-.59Z" transform="translate(70.92 0.59)"/><path id="Path_2-2" data-name="Path 2" class="cls-1" d="M957.4-.59C448.36,2.3-60.46,43.92-70.76,122.89-76.65,168.11,77,255.26,216,253.54c90.68-1.11,127.81-39.5,218.66-26.64,84.73,12,96.93,51.66,192.87,98.85,93.9,46.18,193,62.66,273.67,67.12,20.23,1.12,39.3,1.48,56.83,1.36Z" transform="translate(70.92 0.59)"/></svg>